<svg height="512pt" viewBox="-21 0 512 512" width="512pt" xmlns="http://www.w3.org/2000/svg"><path d="m380.398438 36h-300.597657c-14 0-25.199219 11.398438-25.199219 25.199219v32.199219h25.199219c5.597657 0 10 4.402343 10 10 0 5.601562-4.402343 10-10 10h-25.199219v36h25.199219c5.597657 0 10 4.402343 10 10 0 5.601562-4.402343 10-10 10h-25.199219v36h25.199219c5.597657 0 10 4.402343 10 10 0 5.601562-4.402343 10-10 10h-25.199219v36h25.199219c5.597657 0 10 4.402343 10 10 0 5.601562-4.402343 10-10 10h-25.199219v36h25.199219c5.597657 0 10 4.402343 10 10 0 5.601562-4.402343 10-10 10h-25.199219v36h25.199219c5.597657 0 10 4.402343 10 10 0 5.601562-4.402343 10-10 10h-25.199219v36h25.199219c5.597657 0 10 4.402343 10 10 0 5.601562-4.402343 10-10 10h-25.199219v32.203124c0 14 11.398438 25.199219 25.199219 25.199219h300.597657c14 0 25.203124-11.402343 25.203124-25.199219v-420.402343c0-13.800781-11.203124-25.199219-25.203124-25.199219zm0 0" fill="#e9e9ea"/><path d="m423.398438 373.398438h-17.796876v102h17.796876c8.203124 0 14.800781-6.597657 14.800781-14.796876v-72.203124c.199219-8.199219-6.597657-15-14.800781-15zm0 0" fill="#55acd5"/><path d="m423.398438 271.601562h-17.796876v102h17.796876c8.203124 0 14.800781-6.601562 14.800781-14.800781v-72.199219c.199219-8.402343-6.597657-15-14.800781-15zm0 0" fill="#6dcc6d"/><path d="m423.398438 169.601562h-17.796876v102h17.796876c8.203124 0 14.800781-6.601562 14.800781-14.800781v-72.402343c.199219-8.199219-6.597657-14.796876-14.800781-14.796876zm0 0" fill="#ffcd29"/><path d="m423.398438 67.601562h-17.796876v102h17.796876c8.203124 0 14.800781-6.601562 14.800781-14.800781v-72.199219c.199219-8.203124-6.597657-15-14.800781-15zm0 0" fill="#ea4647"/><path d="m120 36h-40.199219c-14 0-25.199219 11.398438-25.199219 25.199219v32.199219h25.199219c5.597657 0 10 4.402343 10 10 0 5.601562-4.402343 10-10 10h-25.199219v36h25.199219c5.597657 0 10 4.402343 10 10 0 5.601562-4.402343 10-10 10h-25.199219v36h25.199219c5.597657 0 10 4.402343 10 10 0 5.601562-4.402343 10-10 10h-25.199219v36h25.199219c5.597657 0 10 4.402343 10 10 0 5.601562-4.402343 10-10 10h-25.199219v36h25.199219c5.597657 0 10 4.402343 10 10 0 5.601562-4.402343 10-10 10h-25.199219v36h25.199219c5.597657 0 10 4.402343 10 10 0 5.601562-4.402343 10-10 10h-25.199219v36h25.199219c5.597657 0 10 4.402343 10 10 0 5.601562-4.402343 10-10 10h-25.199219v32.203124c0 14 11.398438 25.199219 25.199219 25.199219h40.398438v-470.800781zm0 0" fill="#6d6c6b"/><path d="m369.398438 270c0 61.855469-50.140626 112-112 112-61.855469 0-112-50.144531-112-112s50.144531-112 112-112c61.859374 0 112 50.144531 112 112zm0 0" fill="#6dcc6d"/><path d="m274.199219 310.601562c-.398438.199219-.597657.398438-1 .597657-9.398438 6-21.800781 3.402343-28.199219-5.597657l-23.601562-33.800781c-6.398438-9-4.597657-21.601562 4.203124-28.402343.199219-.199219.597657-.398438.796876-.597657l-20.796876-29.800781-11.601562 22.601562c-5.398438 13.199219-3.800781 28.199219 4.398438 39.796876l35.203124 50.402343c8.199219 11.597657 21.796876 18.398438 36 17.597657l25.398438-3zm0 0" fill="#55acd5"/><path d="m209.601562 200.398438 15.398438-10.796876c2.601562-1.800781 6.398438-1.203124 8.199219 1.398438l22.199219 31.601562c1.800781 2.597657 1.203124 6.398438-1.398438 8.199219l-19.199219 13.398438c-2.601562 1.800781-6.402343 1.199219-8.199219-1.398438l-19.601562-28c-3.199219-4.601562-2-11.199219 2.601562-14.402343zm0 0" fill="#55acd5"/><path d="m325.199219 322-22.199219-31.601562c-1.800781-2.597657-5.601562-3.398438-8.199219-1.398438l-19.199219 13.398438c-2.601562 1.800781-3.402343 5.601562-1.402343 8.203124l19.601562 28c3.398438 4.796876 9.800781 5.796876 14.597657 2.597657l15.402343-10.800781c2.597657-2 3.199219-5.796876 1.398438-8.398438zm0 0" fill="#55acd5"/><g fill="#ffcd29"><path d="m89.800781 103.601562c0-5.601562-4.402343-10-10-10h-41.402343c-5.597657 0-10 4.398438-10 10 0 5.597657 4.402343 10 10 10h41.203124c5.597657 0 10.199219-4.601562 10.199219-10zm0 0"/><path d="m89.800781 159.601562c0-5.601562-4.402343-10-10-10h-41.402343c-5.597657 0-10 4.398438-10 10 0 5.597657 4.402343 10 10 10h41.203124c5.597657 0 10.199219-4.601562 10.199219-10zm0 0"/><path d="m89.800781 215.601562c0-5.601562-4.402343-10-10-10h-41.402343c-5.597657 0-10 4.398438-10 10 0 5.597657 4.402343 10 10 10h41.203124c5.597657 0 10.199219-4.601562 10.199219-10zm0 0"/><path d="m89.800781 271.601562c0-5.601562-4.402343-10-10-10h-41.402343c-5.597657 0-10 4.398438-10 10 0 5.597657 4.402343 10 10 10h41.203124c5.597657 0 10.199219-4.601562 10.199219-10zm0 0"/><path d="m89.800781 327.601562c0-5.601562-4.402343-10-10-10h-41.402343c-5.597657 0-10 4.398438-10 10 0 5.597657 4.402343 10 10 10h41.203124c5.597657 0 10.199219-4.601562 10.199219-10zm0 0"/><path d="m89.800781 383.601562c0-5.601562-4.402343-10-10-10h-41.402343c-5.597657 0-10 4.398438-10 10 0 5.597657 4.402343 10 10 10h41.203124c5.597657 0 10.199219-4.601562 10.199219-10zm0 0"/><path d="m89.800781 439.601562c0-5.601562-4.402343-10-10-10h-41.402343c-5.597657 0-10 4.398438-10 10 0 5.597657 4.402343 10 10 10h41.203124c5.597657 0 10.199219-4.601562 10.199219-10zm0 0"/><path d="m433 8.601562h-3.601562v-3.601562c0-2.800781-2.199219-5-5-5-2.796876 0-5 2.199219-5 5v3.601562h-3.597657c-2.800781 0-5 2.199219-5 5 0 2.796876 2.199219 5 5 5h3.597657v3.597657c0 2.800781 2.203124 5 5 5 2.800781 0 5-2.199219 5-5v-3.597657h3.601562c2.800781 0 5-2.203124 5-5 0-2.800781-2.199219-5-5-5zm0 0"/></g><path d="m469.601562 52c0-.398438-.203124-.601562-.203124-1-.199219-.199219-.199219-.601562-.398438-.800781s-.398438-.597657-.601562-.800781c-2-1.796876-5-1.796876-7 0-.199219.203124-.398438.402343-.597657.800781-.402343.601562-.601562 1.199219-.800781 1.800781s-.199219 1.398438 0 2c0 .398438.199219.601562.199219 1 .199219.398438.199219.601562.402343.800781.199219.199219.398438.597657.597657.800781 2 2 5 2 7 0 .199219-.203124.402343-.402343.601562-.800781.199219-.199219.398438-.601562.398438-.800781.199219-.199219.199219-.601562.199219-1 .203124-.800781.203124-1.398438.203124-2zm0 0" fill="#ea4647"/><path d="m27.199219 486.199219c-6.597657-1.199219-11.800781-6.398438-13.199219-13.199219 0-.199219-.199219-.199219-.398438-.199219-.203124 0-.203124.199219-.203124.199219-1.199219 6.601562-6.398438 11.800781-13.199219 13.199219-.199219 0-.199219.199219-.199219.402343 0 .199219.199219.199219.199219.199219 6.601562 1.199219 11.800781 6.398438 13.199219 13.199219 0 .199219.203124.199219.402343.199219s.199219-.199219.199219-.199219c1.199219-6.601562 6.398438-11.800781 13.199219-13.199219.199219 0 .199219-.199219.199219-.402343 0-.199219 0-.199219-.199219-.199219zm0 0" fill="#55acd5"/><path d="m380.398438 512h-300.597657c-16.601562 0-30.199219-13.601562-30.199219-30.199219v-32.199219c0-2.800781 2.199219-5 5-5h25.199219c2.800781 0 5-2.203124 5-5 0-2.800781-2.199219-5-5-5h-25.199219c-2.800781 0-5-2.203124-5-5v-36c0-2.800781 2.199219-5 5-5h25.199219c2.800781 0 5-2.203124 5-5 0-2.800781-2.199219-5-5-5h-25.199219c-2.800781 0-5-2.203124-5-5v-36c0-2.800781 2.199219-5 5-5h25.199219c2.800781 0 5-2.203124 5-5 0-2.800781-2.199219-5-5-5h-25.199219c-2.800781 0-5-2.203124-5-5v-36c0-2.800781 2.199219-5 5-5h25.199219c2.800781 0 5-2.203124 5-5 0-2.800781-2.199219-5-5-5h-25.199219c-2.800781 0-5-2.203124-5-5v-36c0-2.800781 2.199219-5 5-5h25.199219c2.800781 0 5-2.203124 5-5 0-2.800781-2.199219-5-5-5h-25.199219c-2.800781 0-5-2.203124-5-5v-36c0-2.800781 2.199219-5 5-5h25.199219c2.800781 0 5-2.203124 5-5 0-2.800781-2.199219-5-5-5h-25.199219c-2.800781 0-5-2.203124-5-5v-36c0-2.800781 2.199219-5 5-5h25.199219c2.800781 0 5-2.203124 5-5 0-2.800781-2.199219-5-5-5h-25.199219c-2.800781 0-5-2.203124-5-5v-32.402343c0-16.597657 13.597657-30.199219 30.199219-30.199219h300.597657c16.601562 0 30.203124 13.601562 30.203124 30.199219v420.601562c0 16.597657-13.402343 30.199219-30.203124 30.199219zm-320.796876-57.601562v27.203124c0 11.199219 9 20.199219 20.199219 20.199219h300.597657c11.203124 0 20.203124-9 20.203124-20.199219v-420.402343c0-11.199219-9-20.199219-20.203124-20.199219h-300.597657c-11.199219 0-20.199219 9-20.199219 20.199219v27.199219h20.199219c8.199219 0 15 6.800781 15 15 0 8.203124-6.800781 15-15 15h-20.199219v26h20.199219c8.199219 0 15 6.800781 15 15 0 8.203124-6.800781 15-15 15h-20.199219v26h20.199219c8.199219 0 15 6.800781 15 15 0 8.203124-6.800781 15-15 15h-20.199219v26h20.199219c8.199219 0 15 6.800781 15 15 0 8.203124-6.800781 15-15 15h-20.199219v26h20.199219c8.199219 0 15 6.800781 15 15 0 8.203124-6.800781 15-15 15h-20.199219v26h20.199219c8.199219 0 15 6.800781 15 15 0 8.203124-6.800781 15-15 15h-20.199219v26h20.199219c8.199219 0 15 6.800781 15 15 0 8.203124-6.800781 15-15 15zm0 0"/><path d="m423.398438 480.398438h-17.796876c-2.800781 0-5-2.199219-5-5v-102c0-2.796876 2.199219-5 5-5h17.796876c11 0 19.800781 9 19.800781 20v72.203124c.199219 10.796876-8.800781 19.796876-19.800781 19.796876zm-12.796876-10h12.796876c5.402343 0 9.800781-4.398438 9.800781-10v-72.199219c0-5.398438-4.398438-9.800781-9.800781-10h-12.796876zm0 0"/><path d="m423.398438 378.398438h-17.796876c-2.800781 0-5-2.199219-5-5v-102c0-2.796876 2.199219-5 5-5h17.796876c11 0 19.800781 9 19.800781 19.800781v72.199219c.199219 11.203124-8.800781 20-19.800781 20zm-12.796876-10h12.796876c5.402343 0 9.800781-4.398438 9.800781-9.796876v-72.203124c0-5.398438-4.398438-9.796876-9.800781-9.796876h-12.796876zm0 0"/><path d="m423.398438 276.398438h-17.796876c-2.800781 0-5-2.199219-5-5v-102c0-2.796876 2.199219-5 5-5h17.796876c11 0 19.800781 9 19.800781 19.800781v72.199219c.199219 11.203124-8.800781 20-19.800781 20zm-12.796876-10h12.796876c5.402343 0 9.800781-4.398438 9.800781-9.796876v-72.203124c0-5.398438-4.398438-9.796876-9.800781-9.796876h-12.796876zm0 0"/><path d="m423.398438 174.601562h-17.796876c-2.800781 0-5-2.203124-5-5v-102c0-2.800781 2.199219-5 5-5h17.796876c11 0 19.800781 9 19.800781 20v72.199219c.199219 10.800781-8.800781 19.800781-19.800781 19.800781zm-12.796876-10h12.796876c5.402343 0 9.800781-4.402343 9.800781-9.800781v-72.199219c0-5.402343-4.398438-9.800781-9.800781-10h-12.796876zm0 0"/><path d="m79.800781 118.398438h-41.402343c-8.199219 0-15-6.796876-15-15 0-8.199219 6.800781-15 15-15h41.203124c8.199219 0 15 6.800781 15 15 0 8.203124-6.601562 15-14.800781 15zm-41.402343-20c-2.796876 0-5 2.203124-5 5 0 2.800781 2.203124 5 5 5h41.203124c2.796876 0 5-2.199219 5-5 0-2.796876-2.203124-5-5-5zm0 0"/><path d="m79.800781 174.398438h-41.402343c-8.199219 0-15-6.796876-15-15 0-8.199219 6.800781-15 15-15h41.203124c8.199219 0 15 6.800781 15 15 0 8.203124-6.601562 15-14.800781 15zm-41.402343-20c-2.796876 0-5 2.203124-5 5 0 2.800781 2.203124 5 5 5h41.203124c2.796876 0 5-2.199219 5-5 0-2.796876-2.203124-5-5-5zm0 0"/><path d="m79.800781 230.398438h-41.402343c-8.199219 0-15-6.796876-15-15 0-8.199219 6.800781-15 15-15h41.203124c8.199219 0 15 6.800781 15 15 0 8.203124-6.601562 15-14.800781 15zm-41.402343-20c-2.796876 0-5 2.203124-5 5 0 2.800781 2.203124 5 5 5h41.203124c2.796876 0 5-2.199219 5-5 0-2.796876-2.203124-5-5-5zm0 0"/><path d="m79.800781 286.398438h-41.402343c-8.199219 0-15-6.796876-15-15 0-8.199219 6.800781-15 15-15h41.203124c8.199219 0 15 6.800781 15 15 0 8.203124-6.601562 15-14.800781 15zm-41.402343-20c-2.796876 0-5 2.203124-5 5 0 2.800781 2.203124 5 5 5h41.203124c2.796876 0 5-2.199219 5-5 0-2.796876-2.203124-5-5-5zm0 0"/><path d="m79.800781 342.398438h-41.402343c-8.199219 0-15-6.796876-15-15 0-8.199219 6.800781-15 15-15h41.203124c8.199219 0 15 6.800781 15 15 0 8.203124-6.601562 15-14.800781 15zm-41.402343-20c-2.796876 0-5 2.203124-5 5 0 2.800781 2.203124 5 5 5h41.203124c2.796876 0 5-2.199219 5-5 0-2.796876-2.203124-5-5-5zm0 0"/><path d="m79.800781 398.398438h-41.402343c-8.199219 0-15-6.796876-15-15 0-8.199219 6.800781-15 15-15h41.203124c8.199219 0 15 6.800781 15 15 0 8.203124-6.601562 15-14.800781 15zm-41.402343-20c-2.796876 0-5 2.203124-5 5 0 2.800781 2.203124 5 5 5h41.203124c2.796876 0 5-2.199219 5-5 0-2.796876-2.203124-5-5-5zm0 0"/><path d="m79.800781 454.398438h-41.402343c-8.199219 0-15-6.796876-15-15 0-8.199219 6.800781-15 15-15h41.203124c8.199219 0 15 6.800781 15 15 0 8.203124-6.601562 15-14.800781 15zm-41.402343-20c-2.796876 0-5 2.203124-5 5 0 2.800781 2.203124 5 5 5h41.203124c2.796876 0 5-2.199219 5-5 0-2.796876-2.203124-5-5-5zm0 0"/><path d="m120.199219 512h-40.398438c-16.601562 0-30.199219-13.601562-30.199219-30.199219v-32.199219c0-2.800781 2.199219-5 5-5h25.199219c2.800781 0 5-2.203124 5-5 0-2.800781-2.199219-5-5-5h-25.199219c-2.800781 0-5-2.203124-5-5v-36c0-2.800781 2.199219-5 5-5h25.199219c2.800781 0 5-2.203124 5-5 0-2.800781-2.199219-5-5-5h-25.199219c-2.800781 0-5-2.203124-5-5v-36c0-2.800781 2.199219-5 5-5h25.199219c2.800781 0 5-2.203124 5-5 0-2.800781-2.199219-5-5-5h-25.199219c-2.800781 0-5-2.203124-5-5v-36c0-2.800781 2.199219-5 5-5h25.199219c2.800781 0 5-2.203124 5-5 0-2.800781-2.199219-5-5-5h-25.199219c-2.800781 0-5-2.203124-5-5v-36c0-2.800781 2.199219-5 5-5h25.199219c2.800781 0 5-2.203124 5-5 0-2.800781-2.199219-5-5-5h-25.199219c-2.800781 0-5-2.203124-5-5v-36c0-2.800781 2.199219-5 5-5h25.199219c2.800781 0 5-2.203124 5-5 0-2.800781-2.199219-5-5-5h-25.199219c-2.800781 0-5-2.203124-5-5v-36c0-2.800781 2.199219-5 5-5h25.199219c2.800781 0 5-2.203124 5-5 0-2.800781-2.199219-5-5-5h-25.199219c-2.800781 0-5-2.203124-5-5v-32.402343c0-16.597657 13.597657-30.199219 30.199219-30.199219h40.398438c2.800781 0 5 2.199219 5 5v471c0 2.800781-2.398438 5-5 5zm-60.597657-57.601562v27.203124c0 11.199219 9 20.199219 20.199219 20.199219h35.398438v-460.800781h-35.398438c-11.199219 0-20.199219 9-20.199219 20.199219v27.199219h20.199219c8.199219 0 15 6.800781 15 15 0 8.203124-6.800781 15-15 15h-20.199219v26h20.199219c8.199219 0 15 6.800781 15 15 0 8.203124-6.800781 15-15 15h-20.199219v26h20.199219c8.199219 0 15 6.800781 15 15 0 8.203124-6.800781 15-15 15h-20.199219v26h20.199219c8.199219 0 15 6.800781 15 15 0 8.203124-6.800781 15-15 15h-20.199219v26h20.199219c8.199219 0 15 6.800781 15 15 0 8.203124-6.800781 15-15 15h-20.199219v26h20.199219c8.199219 0 15 6.800781 15 15 0 8.203124-6.800781 15-15 15h-20.199219v26h20.199219c8.199219 0 15 6.800781 15 15 0 8.203124-6.800781 15-15 15zm0 0"/><path d="m257.398438 387c-64.597657 0-117-52.398438-117-117s52.402343-117 117-117c64.601562 0 117 52.398438 117 117s-52.398438 117-117 117zm0-224c-59 0-107 48-107 107s48 107 107 107 107-48 107-107-48-107-107-107zm0 0"/><path d="m267.800781 348.601562c-15.199219 0-29.402343-7.402343-38-19.800781l-35.199219-50.402343c-9.203124-13-11-29.796876-4.800781-44.597657 0-.199219.199219-.199219.199219-.402343l11.601562-22.597657c1.199219-2.402343 4.199219-3.402343 6.796876-2.199219.800781.398438 1.402343 1 1.800781 1.597657l20.800781 29.800781c1.601562 2.199219 1 5.398438-1.199219 7-.199219.199219-.601562.398438-.800781.601562-6.601562 5.199219-8 14.597657-3.199219 21.398438l23.597657 33.800781c4.800781 6.800781 14.203124 8.800781 21.203124 4.398438.199219-.199219.597657-.398438.796876-.597657 2.203124-1.601562 5.402343-1 7 1.199219l21 29.800781c1.601562 2.199219 1 5.398438-1.199219 7-.597657.398438-1.398438.796876-2.199219.796876l-25.398438 3c-.203124 0-.203124 0-.402343 0-1 .203124-1.597657.203124-2.398438.203124zm-69-110.800781c-4.800781 11.597657-3.402343 24.597657 3.800781 34.800781l35.199219 50.398438c7.199219 10.199219 19 16.199219 31.398438 15.601562l16.800781-2-13.601562-19.203124c-11.199219 5.203124-24.597657 1.402343-31.597657-8.796876l-23.402343-34c-7-10.203124-6-23.800781 2.601562-32.800781l-13.398438-19.199219zm0 0"/><path d="m231.601562 250.398438c-.601562 0-1.203124 0-2-.199219-2.800781-.398438-5.402343-2.199219-7-4.398438l-19.601562-28c-4.800781-7-3.199219-16.601562 3.800781-21.601562l15.398438-10.800781c5-3.398438 11.800781-2.199219 15.199219 2.601562l22.203124 31.601562c3.398438 5 2.199219 11.796876-2.601562 15.199219l-19.199219 13.398438c-1.800781 1.601562-4 2.199219-6.199219 2.199219zm-3-57c-.203124 0-.402343 0-.601562.203124l-15.398438 10.796876c-2.402343 1.800781-3 5.203124-1.402343 7.601562l19.601562 28c.398438.398438.800781.601562 1.398438.199219l19.199219-13.398438c.402343-.402343.601562-.800781.203124-1.402343l-22.203124-31.597657c-.199219-.199219-.398438-.199219-.796876-.402343zm0 0"/><path d="m302.199219 348c-1 0-1.800781 0-2.800781-.199219-4-.601562-7.597657-3-10-6.402343l-19.597657-28c-3.402343-5-2.199219-11.796876 2.597657-15.199219l19.203124-13.398438c5-3.402343 11.796876-2.199219 15.199219 2.597657l22.199219 31.601562c3.398438 5 2.199219 11.800781-2.601562 15.199219l-15.398438 10.800781c-2.398438 2-5.601562 3-8.800781 3zm-4.199219-55.199219c-.199219 0-.398438 0-.601562.199219l-19.199219 13.398438c-.398438.402343-.597657.800781-.199219 1.402343l19.601562 28c1.796876 2.398438 5.199219 3 7.597657 1.398438l15.402343-10.800781c.199219-.199219.398438-.398438.398438-.597657s0-.601562-.199219-.800781l-22.199219-31.601562c.199219-.398438-.203124-.597657-.601562-.597657.199219 0 .199219 0 0 0zm0 0"/></svg>